<svg xmlns="http://www.w3.org/2000/svg" width="183.288" height="121.164" viewBox="0 0 183.288 121.164"><defs><style>.cls-1{fill:#9dcee4;}</style></defs><g id="Layer_2" data-name="Layer 2"><g id="Layer_1-2" data-name="Layer 1"><path class="cls-1" d="M180.814,50.624,165.6,28.75a13.156,13.156,0,0,0-10.764-5.691H131.249V8.32A8.329,8.329,0,0,0,122.929,0H8.321A8.33,8.33,0,0,0,0,8.32V86.015a2.5,2.5,0,0,0,2.5,2.5h8.237v13.824a2.5,2.5,0,0,0,2.5,2.5H26.631a18.8,18.8,0,0,0,37.277,0H126.59a18.8,18.8,0,0,0,37.277,0h10.957a8.581,8.581,0,0,0,8.464-8.675V58.551A13.807,13.807,0,0,0,180.814,50.624ZM161.493,31.605,176.71,53.479a8.838,8.838,0,0,1,1.578,5.072v2.9H147.969a2.506,2.506,0,0,1-2.411-2.586v-30.8h9.276A8.153,8.153,0,0,1,161.493,31.605Zm-34.9,68.234H114.46V88.515H132.5A18.773,18.773,0,0,0,126.59,99.839ZM58,88.515H71.474V99.839H63.908A18.773,18.773,0,0,0,58,88.515Zm18.472,0H90.467V99.839H76.474Zm18.993,0H109.46V99.839H95.467ZM5,8.32A3.324,3.324,0,0,1,8.321,5H122.929a3.323,3.323,0,0,1,3.32,3.32v75.2H5ZM15.737,88.515h16.8a18.773,18.773,0,0,0-5.906,11.324H15.737ZM45.27,116.164a13.825,13.825,0,1,1,13.824-13.825A13.84,13.84,0,0,1,45.27,116.164Zm99.959,0a13.825,13.825,0,1,1,13.824-13.825A13.84,13.84,0,0,1,145.229,116.164Zm29.6-16.325H163.867a18.838,18.838,0,0,0-18.638-16.324h-13.98V28.059h9.309v30.8a7.508,7.508,0,0,0,7.411,7.586h30.319V96.164A3.579,3.579,0,0,1,174.824,99.839Z"/><path class="cls-1" d="M145.229,93.6a8.742,8.742,0,1,0,8.742,8.741A8.752,8.752,0,0,0,145.229,93.6Zm0,12.484a3.742,3.742,0,1,1,3.742-3.743A3.747,3.747,0,0,1,145.229,106.082Z"/><path class="cls-1" d="M45.27,93.6a8.742,8.742,0,1,0,8.742,8.741A8.752,8.752,0,0,0,45.27,93.6Zm0,12.484a3.742,3.742,0,1,1,3.742-3.743A3.747,3.747,0,0,1,45.27,106.082Z"/></g></g></svg>